<?xml version="1.0" encoding="UTF-8" standalone="no"?>
<!-- Created with Inkscape (http://www.inkscape.org/) -->

<svg
   width="200mm"
   height="200mm"
   viewBox="0 0 200 200"
   version="1.1"
   id="svg1"
   inkscape:version="1.3 (0e150ed6c4, 2023-07-21)"
   sodipodi:docname="Deutsch-Check.svgz"
   inkscape:dataloss="true"
   xmlns:inkscape="http://www.inkscape.org/namespaces/inkscape"
   xmlns:sodipodi="http://sodipodi.sourceforge.net/DTD/sodipodi-0.dtd"
   xmlns="http://www.w3.org/2000/svg"
   xmlns:svg="http://www.w3.org/2000/svg">
  <sodipodi:namedview
     id="namedview1"
     pagecolor="#ffffff"
     bordercolor="#000000"
     borderopacity="0.25"
     inkscape:showpageshadow="2"
     inkscape:pageopacity="0.0"
     inkscape:pagecheckerboard="0"
     inkscape:deskcolor="#d1d1d1"
     inkscape:document-units="mm"
     inkscape:zoom="0.76167929"
     inkscape:cx="164.11107"
     inkscape:cy="447.03854"
     inkscape:window-width="1920"
     inkscape:window-height="1111"
     inkscape:window-x="-9"
     inkscape:window-y="-9"
     inkscape:window-maximized="1"
     inkscape:current-layer="layer1" />
  <defs
     id="defs1" />
  <g
     inkscape:label="Ebene 1"
     inkscape:groupmode="layer"
     id="layer1">
    <path
       id="text1"
       style="font-size:3.43958px;font-family:'Mongolian Baiti';-inkscape-font-specification:'Mongolian Baiti';fill:#162227;fill-opacity:1;stroke-width:63.2489"
       d="m 12.534557,36.216589 v 3.572786 h 4.924951 c 4.957168,0 8.691281,1.416517 11.202064,4.249294 1.80278,1.995746 2.70433,7.113611 2.70433,15.354112 v 84.594299 c 0,7.46812 -0.708687,12.23202 -2.125074,14.29201 -2.382024,3.54078 -6.309117,5.3114 -11.78132,5.3114 H 12.53541 v 3.57279 h 58.519293 c 12.038833,0 22.629359,-1.64177 31.771177,-4.92495 9.20618,-3.28333 16.86738,-7.82226 22.98339,-13.61635 6.18053,-5.85849 10.81555,-12.84382 13.90555,-20.95557 3.15476,-8.11173 4.73215,-16.99575 4.73215,-26.65257 0,-13.648304 -3.12229,-25.622551 -9.36707,-35.923198 -4.85111,-8.135738 -10.97035,-14.418925 -18.32033,-18.905572 l 1.3479,19.156369 h -1.34876 c -0.89925,-2.854353 -2.00111,-5.306411 -3.3066,-7.357131 -1.27651,-2.050719 -2.74167,-3.727422 -4.39518,-5.029877 -1.65359,-1.302554 -3.4812,-2.258512 -5.48289,-2.868139 -2.00172,-0.609692 -4.178077,-0.914521 -6.527917,-0.914521 -0.87612,0 -1.72668,0.05349 -2.55846,0.14511 4.96239,2.553997 9.326147,5.871365 13.070357,9.979573 4.69961,5.021573 8.33769,11.138057 10.91287,18.348494 2.63959,7.21042 3.95923,15.321626 3.95923,24.334692 0,8.94867 -1.31964,17.02872 -3.95923,24.23916 -2.63955,7.21042 -6.27761,13.3581 -10.91287,18.44403 -4.63529,5.02146 -10.139087,8.91654 -16.512607,11.68492 -6.309107,2.70398 -13.165515,4.05564 -20.569111,4.05564 -5.665316,0 -12.521761,-0.90068 -20.569109,-2.70348 V 46.356544 c 3.734087,-0.901201 7.242369,-1.577031 10.525556,-2.027821 3.283185,-0.515189 6.37347,-0.77291 9.270645,-0.77291 7.028968,0 13.53673,1.152446 19.535999,3.428612 0.0206,-0.0048 0.0406,-0.01139 0.0614,-0.01618 2.29182,-0.526534 4.64133,-0.789972 7.04916,-0.789972 4.264507,0 8.471457,0.998243 12.619927,2.993529 1.27649,0.637426 2.1464,0.942239 2.61047,0.914521 0.92827,0 1.69757,-0.360281 2.3068,-1.080877 0.63825,-0.748298 1.08775,-1.691026 1.34875,-2.827173 h 1.5117 c -2.01041,-1.226455 -4.09519,-2.345396 -6.29248,-3.298941 -10.17185,-4.442131 -25.043422,-6.662715 -44.614604,-6.662715 z m 104.213073,9.961657 c 0.003,0.0023 0.008,0.0045 0.0116,0.0068 l -8.6e-4,-0.0068 z m -27.508237,0.806179 c -2.269238,0.526243 -4.439314,1.295837 -6.509152,2.311902 -2.059742,0.997692 -3.989669,2.244414 -5.788288,3.740844 -1.769536,1.468746 -3.349817,3.145448 -4.742387,5.029878 -2.001749,2.660395 -3.481398,5.570597 -4.438683,8.72978 -0.957287,3.131515 -1.436622,6.373852 -1.436622,9.727059 0,6.983527 2.002434,13.052384 6.005829,18.206868 5.337872,6.928104 12.909231,10.392484 22.714653,10.392484 2.69795,0 5.207787,-0.29161 7.528617,-0.87358 2.34982,-0.55421 4.52538,-1.42734 6.52707,-2.61903 2.00171,-1.19161 3.85829,-2.701794 5.5699,-4.530805 1.71164,-1.829026 3.30729,-3.990304 4.78674,-6.484425 l -1.34874,-0.831765 c -1.6245,1.967616 -3.11867,3.686564 -4.48219,5.155293 -1.33455,1.468762 -2.72721,2.687321 -4.17764,3.657228 -1.45051,0.969908 -3.06063,1.690674 -4.83026,2.161754 -1.76961,0.47111 -3.87266,0.70639 -6.309527,0.70639 -2.14674,0 -4.2208,-0.24937 -6.22252,-0.74819 -1.97267,-0.4988 -3.80028,-1.232787 -5.482874,-2.202694 -1.68253,-0.969991 -3.191166,-2.17531 -4.525701,-3.616304 -1.305534,-1.441044 -2.393736,-3.11773 -3.263962,-5.029878 -1.711612,-3.768891 -2.567834,-8.189242 -2.567834,-13.260589 0,-3.32549 0.261823,-6.318498 0.784,-8.978893 0.522173,-2.688113 1.276129,-5.085495 2.262423,-7.191634 1.79862,-3.82431 4.220633,-6.650798 7.266716,-8.479825 2.369632,-1.444395 5.014822,-2.318883 7.928702,-2.639495 -1.18097,-0.60781 -2.38592,-1.185558 -3.6359,-1.705345 -0.53121,-0.223111 -1.07283,-0.422326 -1.61237,-0.627028 z m 43.082447,28.665883 h 0.70721 v 10.288397 c 0.32759,-0.317359 0.65005,-0.650055 0.96741,-0.99812 0.3276,-0.348066 0.67566,-0.665425 1.0442,-0.952062 0.36853,-0.286638 0.76779,-0.522098 1.19776,-0.706366 0.4402,-0.184268 0.9367,-0.276402 1.48952,-0.276402 0.7473,0 1.35644,0.163764 1.82734,0.491375 0.47092,0.31736 0.83946,0.747308 1.10562,1.289893 0.26617,0.532333 0.44532,1.141447 0.53746,1.827343 0.10235,0.685878 0.15352,1.392261 0.15352,2.119097 v 5.574163 c 0,0.470905 0.005,0.870164 0.0149,1.197758 0.0205,0.31736 0.0921,0.578409 0.21499,0.783147 0.13306,0.194504 0.33782,0.342948 0.61423,0.445317 0.28664,0.102353 0.70125,0.168882 1.24382,0.199621 v 0.552804 h -6.91011 v -0.552804 h 0.32246 c 0.46067,0 0.81897,-0.04094 1.07492,-0.122823 0.25591,-0.08188 0.45041,-0.220092 0.58351,-0.414611 0.13305,-0.204739 0.21499,-0.476023 0.24569,-0.813853 0.0307,-0.33783 0.0461,-0.762693 0.0461,-1.274539 V 88.73348 c 0,-0.440199 -0.01,-0.885533 -0.0307,-1.335951 -0.01,-0.46067 -0.0816,-0.875281 -0.21498,-1.243817 -0.13306,-0.378771 -0.3583,-0.685895 -0.67566,-0.921356 -0.30711,-0.245696 -0.75242,-0.368536 -1.33595,-0.368536 -0.25593,0 -0.51187,0.03071 -0.7678,0.09212 -0.25593,0.05118 -0.52722,0.153529 -0.81385,0.307107 -0.27642,0.143294 -0.5733,0.348082 -0.89064,0.614232 -0.31736,0.255948 -0.66542,0.588644 -1.04419,0.998138 v 7.432211 c 0,0.501611 0.01,0.895768 0.0307,1.182389 0.0205,0.276418 0.0563,0.491392 0.10747,0.644954 0.0614,0.153529 0.13818,0.266167 0.23035,0.33783 0.10235,0.07165 0.23032,0.148412 0.38388,0.230327 0.1433,0.08188 0.34295,0.143294 0.59888,0.184268 0.25593,0.03071 0.56306,0.04606 0.92136,0.04606 v 0.552803 h -6.97154 v -0.552803 c 0.38902,0 0.7166,-0.02047 0.98277,-0.06141 0.2764,-0.05118 0.50162,-0.163764 0.67566,-0.33783 0.17403,-0.174033 0.29687,-0.435082 0.36853,-0.783147 0.0819,-0.358268 0.12282,-0.839441 0.12282,-1.443438 V 81.577654 c 0,-1.586765 -0.0409,-2.57465 -0.12282,-2.963673 -0.0717,-0.368536 -0.18937,-0.619334 -0.35318,-0.752425 -0.15353,-0.133059 -0.36342,-0.199637 -0.62959,-0.199637 -0.23546,0 -0.58352,0.08188 -1.04419,0.245696 l -0.21499,-0.537451 z m 43.67278,0 -4.17678,1.719856 0.26105,0.537451 c 0.44019,-0.174033 0.76267,-0.261049 0.96741,-0.261049 0.26617,0 0.47604,0.07165 0.6296,0.21499 0.16377,0.133058 0.28666,0.383889 0.36854,0.752425 0.0413,0.174032 0.0669,0.511862 0.0768,1.01349 0.0205,0.491375 0.0307,1.146565 0.0307,1.965535 V 94.39976 c 0,0.542569 -0.0307,0.982768 -0.0921,1.320598 -0.0614,0.327578 -0.17915,0.58351 -0.35318,0.767794 -0.17404,0.174049 -0.41461,0.291772 -0.72172,0.353183 -0.29689,0.06141 -0.6859,0.09212 -1.16705,0.09212 v 0.552803 h 7.15581 v -0.552803 c -0.80874,-0.02047 -1.3206,-0.087 -1.53558,-0.199621 -0.12282,-0.06141 -0.23036,-0.133059 -0.32247,-0.21499 -0.0921,-0.08188 -0.16893,-0.204755 -0.23035,-0.368536 -0.0614,-0.174033 -0.10747,-0.404376 -0.13817,-0.691013 -0.0307,-0.286638 -0.0461,-0.665425 -0.0461,-1.13633 v -4.622101 l 4.31499,5.466676 c 0.40948,0.511863 0.61423,0.890634 0.61423,1.13633 0,0.194503 -0.0716,0.348065 -0.21499,0.46067 -0.13305,0.102683 -0.39414,0.158977 -0.78314,0.168915 v 0.552803 h 6.83332 v -0.552803 c -0.36852,0 -0.67053,-0.01486 -0.90599,-0.04606 -0.22521,-0.03071 -0.42994,-0.087 -0.61423,-0.168899 -0.17403,-0.08188 -0.34806,-0.189385 -0.5221,-0.322477 -0.16376,-0.143294 -0.3583,-0.327595 -0.58352,-0.552804 -0.3583,-0.33783 -1.03396,-1.136346 -2.02697,-2.395516 l -3.60861,-4.560673 3.60861,-3.332208 c 0.33783,-0.307125 0.65008,-0.563056 0.93671,-0.767794 0.29687,-0.214991 0.59376,-0.383906 0.89064,-0.506746 0.30712,-0.122823 0.62448,-0.209872 0.95206,-0.261049 0.33783,-0.06174 0.72172,-0.09757 1.15168,-0.10747 v -0.491392 h -6.11161 v 0.491392 c 0.389,0.02047 0.66542,0.10747 0.82922,0.261049 0.17403,0.143294 0.26105,0.317343 0.26105,0.522098 0,0.08188 -0.0149,0.158647 -0.0461,0.230343 -0.0205,0.07165 -0.0819,0.168899 -0.18427,0.291755 -0.0921,0.112588 -0.23546,0.261033 -0.42996,0.445317 -0.19451,0.184268 -0.45555,0.424846 -0.78315,0.721719 l -3.5779,3.224722 V 75.650324 Z m -24.69213,7.340077 c -0.91113,0 -1.76594,0.168915 -2.56444,0.506745 -0.78826,0.337831 -1.47416,0.83434 -2.05767,1.489513 -0.58352,0.65519 -1.04419,1.458808 -1.38202,2.41087 -0.3276,0.94181 -0.49139,2.021846 -0.49139,3.240074 0,1.11586 0.16376,2.124232 0.49139,3.025101 0.32759,0.890634 0.76779,1.653311 1.3206,2.288013 0.56305,0.624468 1.21311,1.110726 1.95018,1.458791 0.74731,0.33783 1.54072,0.506745 2.38015,0.506745 0.77803,0 1.49463,-0.158647 2.14982,-0.476023 0.6654,-0.327578 1.24383,-0.752441 1.73521,-1.274539 0.50162,-0.522098 0.91112,-1.115843 1.22846,-1.781268 0.31736,-0.665408 0.53233,-1.341068 0.64494,-2.026963 l -0.47603,-0.307125 c -0.46067,1.228464 -1.03396,2.098628 -1.71985,2.61049 -0.67566,0.501611 -1.47416,0.752441 -2.3955,0.752441 -0.6859,0 -1.34109,-0.148411 -1.96555,-0.445317 -0.61424,-0.307124 -1.1568,-0.747323 -1.62771,-1.320614 -0.47092,-0.58351 -0.84457,-1.289892 -1.12098,-2.119098 -0.2764,-0.829205 -0.41461,-1.765915 -0.41461,-2.810111 h 9.72023 c 0,-0.870163 -0.13818,-1.65331 -0.4146,-2.349441 -0.26618,-0.706365 -0.63983,-1.310362 -1.12097,-1.81199 -0.48115,-0.501627 -1.05445,-0.885516 -1.71986,-1.151682 -0.65519,-0.276402 -1.37181,-0.414612 -2.1498,-0.414612 z m 14.08127,0.01486 c -0.91112,0 -1.77616,0.184251 -2.59514,0.552804 -0.80873,0.3583 -1.52021,0.865046 -2.13445,1.520219 -0.60399,0.655189 -1.08513,1.443454 -1.44345,2.364794 -0.3583,0.91112 -0.53745,1.919476 -0.53745,3.025101 0,1.146565 0.16376,2.180526 0.49139,3.101882 0.32756,0.911088 0.76266,1.689134 1.30523,2.334071 0.5528,0.644955 1.18752,1.141448 1.90412,1.489513 0.71661,0.348066 1.46905,0.522098 2.25731,0.522098 0.66543,0 1.31036,-0.127941 1.93483,-0.383889 0.62447,-0.245696 1.19776,-0.614231 1.71986,-1.105624 0.52209,-0.491392 0.97765,-1.095389 1.36667,-1.81199 0.38901,-0.716568 0.68078,-1.540689 0.87528,-2.472281 l -0.44533,-0.214973 c -0.30709,0.716601 -0.62959,1.310362 -0.96742,1.781267 -0.32759,0.46067 -0.67052,0.824105 -1.02882,1.090272 -0.3583,0.266166 -0.73197,0.455552 -1.12098,0.568156 -0.38901,0.102353 -0.7985,0.15353 -1.22846,0.15353 -0.71661,0 -1.35644,-0.179151 -1.91948,-0.537451 -0.56304,-0.358301 -1.0442,-0.83434 -1.44346,-1.428102 -0.389,-0.593745 -0.69099,-1.269405 -0.90598,-2.026964 -0.20474,-0.767777 -0.30713,-1.561176 -0.30713,-2.380146 0,-0.696131 0.0768,-1.351304 0.23035,-1.965553 0.16376,-0.624467 0.40436,-1.167035 0.72171,-1.627705 0.31736,-0.470922 0.70637,-0.839458 1.16706,-1.105624 0.46067,-0.276402 0.993,-0.414611 1.597,-0.414611 0.64493,0 1.14144,0.158646 1.48951,0.476039 0.35832,0.307124 0.56306,0.762676 0.61423,1.366657 0.0307,0.368535 0.0921,0.670542 0.18427,0.906003 0.0921,0.235461 0.20986,0.419729 0.35318,0.552804 0.15353,0.133058 0.3276,0.225225 0.5221,0.276402 0.20476,0.05118 0.42485,0.07676 0.66031,0.07676 0.46067,0 0.81385,-0.117706 1.05955,-0.353183 0.24568,-0.245679 0.36853,-0.563039 0.36853,-0.952062 0,-0.389006 -0.12282,-0.783147 -0.36853,-1.182389 -0.23546,-0.399241 -0.56306,-0.762676 -0.98277,-1.090271 -0.41973,-0.327595 -0.92136,-0.593761 -1.50488,-0.7985 -0.57328,-0.204755 -1.20286,-0.307107 -1.88876,-0.307107 z m -14.9412,1.074902 c 0.5528,0 1.08002,0.163764 1.58164,0.491392 0.51187,0.327562 0.89576,0.778013 1.15169,1.351304 0.17405,0.368536 0.28153,1.003255 0.32247,1.904124 h -6.51087 c 0.0512,-0.593762 0.17915,-1.120977 0.38391,-1.581647 0.21497,-0.460686 0.48114,-0.849693 0.7985,-1.167052 0.31736,-0.327595 0.67054,-0.573291 1.05955,-0.737072 0.389,-0.174033 0.79338,-0.261049 1.21311,-0.261049 z" />
  </g>
</svg>
